<svg xmlns="http://www.w3.org/2000/svg" version="1.1" xmlns:xlink="http://www.w3.org/1999/xlink" xmlns:svgjs="http://svgjs.com/svgjs" width="1440" height="560" preserveAspectRatio="none" viewBox="0 0 1440 560"><g mask="url(&quot;#SvgjsMask1908&quot;)" fill="none"><rect width="1440" height="560" x="0" y="0" fill="rgba(0, 0, 0, 1)"></rect><path d="M1122.8070048524944 213.25809767387452L1130.9611643724768 368.8487300481952 1286.5517967467972 360.6945705282129 1278.397637226815 205.10393815389222z" fill="rgba(255, 255, 255, 0.32)" class="triangle-float2"></path><path d="M697.6431517911947-54.14933663991278L710.3746908543321 91.37282074639722 855.8968482406422 78.64128168325976 843.1653091775047-66.88087570305024z" fill="rgba(255, 255, 255, 0.32)" class="triangle-float3"></path><path d="M625.4347268487211 136.86125800688842L676.2911751766476 236.67265776795688 776.1025749377161 185.81620944003032 725.2461266097896 86.00480967896186z" fill="rgba(255, 255, 255, 0.32)" class="triangle-float3"></path><path d="M1374.6926558928649 333.3903950552164L1472.276347418377 301.6835316474613 1440.569484010622 204.09984012194897 1342.9857924851099 235.80670352970407z" fill="rgba(255, 255, 255, 0.32)" class="triangle-float3"></path><path d="M235.427,135.516C267.636,136.803,305.645,138.838,322.333,111.259C339.323,83.181,321.962,48.999,304.646,21.121C288.574,-4.753,265.872,-27.744,235.427,-28.651C203.578,-29.6,174.391,-10.946,158.674,16.771C143.166,44.119,142.707,78.359,159.773,104.763C175.611,129.266,206.274,134.351,235.427,135.516" fill="rgba(255, 255, 255, 0.32)" class="triangle-float1"></path><path d="M-29.131411986594507 505.16839657324067L89.46892585787594 494.7922115215049 79.09274080614014 376.19187367703444-39.5075970383303 386.5680587287702z" fill="rgba(255, 255, 255, 0.32)" class="triangle-float2"></path><path d="M90.04559398474129 306.6033616528285L153.41793092667746 302.1719361650689 115.08462422407001 209.32914349604445z" fill="rgba(255, 255, 255, 0.32)" class="triangle-float1"></path><path d="M1183.8171472457218 209.02468600326213L1160.2012478585855 320.12875732239723 1294.9212185648569 232.6405853903984z" fill="rgba(255, 255, 255, 0.32)" class="triangle-float2"></path><path d="M611.341,622.814C652.519,622.48,699.202,622.98,721.291,588.227C744.455,551.782,733.108,504.256,709.802,467.901C688.405,434.525,650.961,418.155,611.341,416.719C568.55,415.168,523.085,424.423,499.687,460.284C474.355,499.11,472.008,551.825,498.258,590.036C522.076,624.707,569.278,623.155,611.341,622.814" fill="rgba(255, 255, 255, 0.32)" class="triangle-float1"></path></g><defs><mask id="SvgjsMask1908"><rect width="1440" height="560" fill="#ffffff"></rect></mask><style>
            @keyframes float1 {
                0%{transform: translate(0, 0)}
                50%{transform: translate(-10px, 0)}
                100%{transform: translate(0, 0)}
            }

            .triangle-float1 {
                animation: float1 5s infinite;
            }

            @keyframes float2 {
                0%{transform: translate(0, 0)}
                50%{transform: translate(-5px, -5px)}
                100%{transform: translate(0, 0)}
            }

            .triangle-float2 {
                animation: float2 4s infinite;
            }

            @keyframes float3 {
                0%{transform: translate(0, 0)}
                50%{transform: translate(0, -10px)}
                100%{transform: translate(0, 0)}
            }

            .triangle-float3 {
                animation: float3 6s infinite;
            }
        </style></defs></svg>