<svg xmlns="http://www.w3.org/2000/svg" version="1.1" xmlns:xlink="http://www.w3.org/1999/xlink" xmlns:svgjs="http://svgjs.com/svgjs" width="1440" height="560" preserveAspectRatio="none" viewBox="0 0 1440 560"><g mask="url(&quot;#SvgjsMask1000&quot;)" fill="none"><rect width="1440" height="560" x="0" y="0" fill="#0e2a47"></rect><path d="M0,341.785C74.036,356.397,153.656,377.557,221.783,345.1C292.161,311.571,336.711,239.407,366.289,167.279C395.16,96.874,405.717,18.006,386.061,-55.507C367.467,-125.048,300.416,-165.94,261.074,-226.222C213.546,-299.047,207.927,-405.648,131.038,-446.274C53.412,-487.29,-42.324,-455.774,-126.564,-431.039C-210.804,-406.304,-293.703,-370.665,-351.512,-304.587C-409.462,-238.347,-448.639,-152.326,-447.386,-64.324C-446.202,18.807,-398.05,93.568,-344.93,157.524C-300.365,211.18,-233.377,234.547,-171.855,267.412C-115.66,297.431,-62.504,329.449,0,341.785" fill="#0b2239"></path><path d="M1440 1062.755C1533.974 1048.429 1614.359 1002.87 1703.642 970.236 1822.412 926.8240000000001 1999.665 954.606 2051.478 839.2529999999999 2103.408 723.641 1936.531 616.651 1918.8319999999999 491.154 1901.054 365.097 2011.499 229.611 1949.7939999999999 118.26100000000002 1888.614 7.860000000000014 1743.135-26.658000000000015 1619.055-49.803999999999974 1502.551-71.53599999999994 1388.755-34.423 1273.237-7.942000000000007 1150.009 20.307000000000016 1006.713 17.355999999999995 920.94 110.23200000000003 834.765 203.54399999999998 831.39 345.254 829.76 472.26099999999997 828.28 587.582 861.091 697.646 912.073 801.096 961.852 902.105 1018.191 1009.3430000000001 1119.087 1059.351 1216.919 1107.8400000000001 1332.058 1079.211 1440 1062.755" fill="#113255"></path></g><defs><mask id="SvgjsMask1000"><rect width="1440" height="560" fill="#ffffff"></rect></mask></defs></svg>